<svg width="22" height="22" viewBox="0 0 22 22" fill="none" xmlns="http://www.w3.org/2000/svg">
<path fill-rule="evenodd" clip-rule="evenodd" d="M22 21.9597H17.4413V14.8268C17.4413 13.1257 17.4125 10.9376 15.0727 10.9376C12.7011 10.9376 12.339 12.7914 12.339 14.7048V21.9597H7.7851V7.29139H12.1555V9.29698H12.218C12.826 8.14338 14.3129 6.92735 16.5307 6.92735C21.147 6.92735 22 9.96455 22 13.9152V21.9597ZM2.6453 5.28772C1.18049 5.28772 0 4.10339 0 2.64338C0 1.18433 1.18049 0 2.6453 0C4.10339 0 5.28772 1.18433 5.28772 2.64338C5.28772 4.10339 4.10339 5.28772 2.6453 5.28772ZM4.9256 21.9597H0.36212V7.29139H4.9256V21.9597Z" fill="#0077B5"/>
</svg>
