<svg width="18" height="18" viewBox="0 0 18 18" fill="none" xmlns="http://www.w3.org/2000/svg">
<path d="M17.2499 9L15.4199 6.9075L15.6749 4.14L12.9674 3.525L11.5499 1.125L8.99994 2.22L6.44994 1.125L5.03244 3.5175L2.32494 4.125L2.57994 6.9L0.749939 9L2.57994 11.0925L2.32494 13.8675L5.03244 14.4825L6.44994 16.875L8.99994 15.7725L11.5499 16.8675L12.9674 14.475L15.6749 13.86L15.4199 11.0925L17.2499 9ZM7.03494 12.0075L5.24994 10.2075C4.95744 9.915 4.95744 9.4425 5.24994 9.15L5.30244 9.0975C5.59494 8.805 6.07494 8.805 6.36744 9.0975L7.57494 10.3125L11.4374 6.4425C11.7299 6.15 12.2099 6.15 12.5024 6.4425L12.5549 6.495C12.8474 6.7875 12.8474 7.26 12.5549 7.5525L8.11494 12.0075C7.80744 12.3 7.33494 12.3 7.03494 12.0075Z" fill="#7A7A7A"/>
</svg>
